<?xml version="1.0" standalone="no"?>
<!DOCTYPE svg PUBLIC "-//W3C//DTD SVG 20010904//EN"
 "http://www.w3.org/TR/2001/REC-SVG-20010904/DTD/svg10.dtd">
<svg version="1.0" xmlns="http://www.w3.org/2000/svg"
 width="95.000000pt" height="75.000000pt" viewBox="0 0 95.000000 75.000000"
 preserveAspectRatio="xMidYMid meet">
<metadata>
Created by potrace 1.10, written by Peter Selinger 2001-2011
</metadata>
<g transform="translate(0.000000,75.000000) scale(0.100000,-0.100000)"
fill="#fffdfd" stroke="none">
<path d="M248 645 c-15 -33 4 -55 47 -55 43 0 62 22 47 55 -17 36 -77 36 -94
0z m72 -15 c0 -15 -7 -20 -25 -20 -18 0 -25 5 -25 20 0 15 7 20 25 20 18 0 25
-5 25 -20z"/>
<path d="M570 650 c-24 -24 -25 -34 -4 -54 30 -30 94 -10 94 29 0 16 -38 45
-57 45 -7 0 -22 -9 -33 -20z m60 -31 c0 -16 -6 -20 -27 -17 -34 4 -41 26 -11
37 28 11 38 6 38 -20z"/>
<path d="M233 555 c-33 -23 -29 -61 17 -151 46 -91 129 -224 130 -208 0 7 -16
45 -35 85 -77 164 -60 266 40 238 39 -12 39 -11 26 5 -11 13 -58 28 -126 41
-19 3 -38 0 -52 -10z m71 -11 c14 -6 14 -9 -4 -24 -16 -14 -21 -30 -21 -75 -1
-66 -10 -59 -35 24 -16 52 -15 55 2 68 20 14 34 16 58 7z"/>
<path d="M570 550 c-55 -10 -150 -51 -169 -73 -12 -15 -7 -14 30 3 63 28 120
26 149 -5 20 -22 22 -31 17 -82 -9 -83 -49 -191 -97 -263 -22 -35 -39 -65 -36
-67 6 -6 76 88 134 182 58 95 92 181 92 235 0 36 -19 70 -40 70 -5 0 -14 2
-22 4 -7 2 -33 0 -58 -4z m74 -20 c40 -15 36 -81 -11 -181 -39 -84 -51 -98
-28 -34 8 22 14 64 15 93 0 48 -4 57 -31 83 -17 16 -39 30 -48 30 -9 1 -2 5
14 9 44 11 61 11 89 0z"/>
<path d="M416 303 c-31 -45 -34 -63 -6 -38 31 28 43 7 51 -83 6 -70 6 -67 5
37 -1 129 -10 144 -50 84z"/>
</g>
</svg>
